HIERARCHY
ROOT hip
{
	OFFSET 0.000000 0.000000 0.000000 
	CHANNELS 6 Xposition Yposition Zposition Xrotation Zrotation Yrotation
	JOINT abdomen
	{
		OFFSET 0.000000 3.402643 0.000000 
		CHANNELS 3 Xrotation Zrotation Yrotation
		JOINT chest
		{
			OFFSET 0.000000 8.438565 -0.680529 
			CHANNELS 3 Xrotation Zrotation Yrotation
			JOINT neck
			{
				OFFSET 0.000000 10.207942 -0.272212 
				CHANNELS 3 Xrotation Zrotation Yrotation
				JOINT head
				{
					OFFSET 0.000000 3.130431 0.000000 
					CHANNELS 3 Xrotation Zrotation Yrotation
					End Site
					{
						OFFSET 0.000000 3.130435 0.000000 
					}
				}
			}
			JOINT lCollar
			{
				OFFSET 3.470700 6.669187 -0.816635 
				CHANNELS 3 Yrotation Zrotation Xrotation
				JOINT lShldr
				{
					OFFSET 3.198488 0.000000 0.000000 
					CHANNELS 3 Zrotation Yrotation Xrotation
					JOINT lForeArm
					{
						OFFSET 10.139888 0.000000 0.000000 
						CHANNELS 3 Yrotation Zrotation Xrotation
						JOINT lHand
						{
							OFFSET 8.370511 0.000000 0.000000 
							CHANNELS 3 Zrotation Yrotation Xrotation
							End Site
							{
								OFFSET 4.083176 0.000000 0.000000 
							}
						}
					}
				}
			}
			JOINT rCollar
			{
				OFFSET -3.470700 6.669187 -0.816635 
				CHANNELS 3 Yrotation Zrotation Xrotation
				JOINT rShldr
				{
					OFFSET -3.198488 0.000000 0.000000 
					CHANNELS 3 Zrotation Yrotation Xrotation
					JOINT rForeArm
					{
						OFFSET -10.139888 0.000000 0.000000 
						CHANNELS 3 Yrotation Zrotation Xrotation
						JOINT rHand
						{
							OFFSET -8.370511 0.000000 0.000000 
							CHANNELS 3 Zrotation Yrotation Xrotation
							End Site
							{
								OFFSET -4.083176 0.000000 0.000000 
							}
						}
					}
				}
			}
		}
	}
	JOINT lThigh
	{
		OFFSET 5.308129 -1.633274 1.361059 
		CHANNELS 3 Xrotation Zrotation Yrotation
		JOINT lShin
		{
			OFFSET -2.041588 -20.007561 0.000000 
			CHANNELS 3 Xrotation Zrotation Yrotation
			JOINT lFoot
			{
				OFFSET 0.000000 -19.190928 -1.224953 
				CHANNELS 3 Xrotation Yrotation Zrotation
				End Site
				{
					OFFSET 0.000000 -2.449906 4.627600 
				}
			}
		}
	}
	JOINT rThigh
	{
		OFFSET -5.308129 -1.633274 1.361059 
		CHANNELS 3 Xrotation Zrotation Yrotation
		JOINT rShin
		{
			OFFSET 2.041588 -20.007561 0.000000 
			CHANNELS 3 Xrotation Zrotation Yrotation
			JOINT rFoot
			{
				OFFSET 0.000000 -19.190928 -1.224953 
				CHANNELS 3 Xrotation Yrotation Zrotation
				End Site
				{
					OFFSET 0.000000 -2.449906 4.627600 
				}
			}
		}
	}
}
MOTION
Frames: 6
Frame Time: 0.016667
2.616397 63.729950 -14.492161 1.835764 16.656326 7.891748 40.860538 -15.661185 -8.267883 1.674126 -2.785742 6.430395 -19.443676 -0.293484 0.083910 1.254001 0.154189 -9.316426 -4.658859 5.107820 0.266878 -66.029793 42.715412 -40.201553 -120.850182 -5.000000 -24.864468 -20.438393 -9.817489 9.929199 13.585818 -30.000000 1.856688 71.768906 16.960016 -0.164853 113.627533 5.000000 -7.830324 22.299076 -15.970980 17.346895 -69.446854 -12.959019 12.356297 94.268929 1.355562 -11.266281 11.609427 10.045533 -11.641424 28.654501 -8.398355 -19.591043 3.930041 4.305916 0.414605 34.549042 -5.730524 14.020401 
2.524857 64.643745 -11.418208 1.480805 16.320780 7.797479 40.796204 -15.779594 -8.513885 1.513276 -2.707786 6.430388 -18.984411 -0.114408 0.027186 1.704429 0.453156 -9.140878 -4.479906 4.562441 0.228174 -66.508499 43.531372 -41.362762 -120.404121 -5.000000 -24.735950 -20.123793 -9.692181 10.279006 14.076846 -30.000000 1.841897 72.220917 18.266174 0.799863 111.973724 5.000000 -7.586310 22.542265 -16.242329 18.007820 -67.526131 -12.998469 10.992752 89.505562 0.448487 -12.361978 12.678909 9.691253 -12.662075 30.039883 -7.656625 -19.814777 6.181607 4.728159 0.657922 34.606663 -5.348228 14.078871 
2.437437 65.453613 -8.321590 1.084633 16.177502 7.742423 40.797642 -16.073542 -8.915602 1.374834 -2.552405 6.185509 -18.642649 0.132258 -0.039764 2.242059 0.771789 -8.926543 -4.146397 4.172283 0.208059 -67.467804 43.964104 -42.726299 -119.242233 -5.000000 -24.012064 -19.725510 -9.442842 10.389187 14.411081 -30.000000 1.788774 72.872917 19.830391 2.053260 109.953514 5.000000 -7.026505 22.375650 -16.477911 18.426558 -64.885384 -13.154338 9.384031 84.202866 -0.742028 -13.104773 14.051498 9.204873 -13.851009 31.515303 -7.100114 -19.503046 8.017934 5.099613 0.852880 34.474075 -5.332429 14.333990 
2.357740 66.202263 -5.209565 0.706599 16.057867 7.564050 40.739697 -16.467806 -9.190994 1.223863 -2.426184 5.969966 -18.340446 0.387119 -0.117829 2.778992 1.042411 -8.751385 -3.832496 3.762622 0.186928 -68.340805 44.248615 -43.983307 -117.883423 -5.000000 -23.093204 -19.373695 -9.156692 10.572010 14.579762 -30.000000 1.715862 73.687683 21.323675 3.441087 107.889839 5.000000 -6.385107 22.114780 -16.865557 19.068689 -62.075649 -13.242351 7.849824 78.768112 -2.001814 -13.412348 15.312596 8.643660 -14.864570 32.881824 -6.739303 -19.108341 9.927803 5.480345 1.075364 34.317749 -5.279644 14.543850 
2.308932 66.706078 -2.035823 0.385269 16.101171 6.853511 40.465954 -17.281143 -8.973593 1.043785 -2.387399 5.921201 -18.194977 0.662751 -0.189156 3.302791 1.071507 -8.702560 -3.557508 3.245689 0.160252 -68.832909 43.909504 -44.737408 -115.907631 -5.000000 -21.584446 -19.167921 -8.728353 11.015955 14.104419 -28.854219 1.625967 75.029694 22.533100 5.227935 105.647675 5.000000 -5.546063 21.487936 -17.826641 20.573082 -58.680321 -13.096073 6.684835 72.743851 -3.201456 -12.541355 16.261742 7.734531 -15.317770 33.932140 -7.051070 -18.613079 12.016232 5.773221 1.446517 33.633923 -5.310668 14.647058 
2.260126 67.209869 1.137924 0.052270 16.132477 6.142897 40.181759 -18.070448 -8.751324 0.873151 -2.358376 5.872037 -18.049995 0.938381 -0.260475 3.826827 1.100638 -8.644161 -3.282786 2.738508 0.134067 -69.319183 43.577362 -45.000000 -113.831322 -5.000000 -19.972574 -18.966057 -8.302066 11.465344 13.632445 -27.499043 1.532776 76.427536 23.697613 7.065075 103.408585 5.000000 -4.721570 20.823549 -18.758329 22.102663 -55.280106 -12.890691 5.533482 66.694679 -4.342046 -11.539248 17.167385 6.886863 -15.718949 34.959175 -7.373086 -18.087030 14.143425 6.047638 1.801304 32.985970 -5.359828 14.709794 
